<?xml version="1.0" encoding="iso-8859-1"?>
<!-- Generator: Adobe Illustrator 17.1.0, SVG Export Plug-In . SVG Version: 6.00 Build 0)  -->
<!DOCTYPE svg PUBLIC "-//W3C//DTD SVG 1.1//EN" "http://www.w3.org/Graphics/SVG/1.1/DTD/svg11.dtd">
<svg version="1.1" id="Capa_1" xmlns="http://www.w3.org/2000/svg" xmlns:xlink="http://www.w3.org/1999/xlink" x="0px" y="0px"
	 viewBox="0 0 297.761 297.761" style="enable-background:new 0 0 297.761 297.761;" xml:space="preserve">
<g>
	<path d="M158.416,11.254L148.879,0l-9.537,11.254c-3.727,4.399-91.309,108.642-91.309,185.662
		c0,55.607,45.239,100.845,100.846,100.845c55.607,0,100.848-45.238,100.848-100.845C249.727,119.896,162.144,15.653,158.416,11.254
		z M148.879,39.341c18.036,23.288,56.565,76.727,70.596,124.895c-11.891,1.644-19.129,6.62-25.147,10.771
		c-6.038,4.165-10.027,6.916-19.368,6.916c-9.339,0-13.328-2.751-19.366-6.915c-7.322-5.05-16.435-11.335-33.558-11.335
		c-17.124,0-26.237,6.285-33.56,11.335c-4.775,3.293-8.278,5.696-14.15,6.56C82.607,129.557,128.643,65.47,148.879,39.341z"/>
</g>
<g>
</g>
<g>
</g>
<g>
</g>
<g>
</g>
<g>
</g>
<g>
</g>
<g>
</g>
<g>
</g>
<g>
</g>
<g>
</g>
<g>
</g>
<g>
</g>
<g>
</g>
<g>
</g>
<g>
</g>
</svg>
