<?xml version="1.0" encoding="iso-8859-1"?>
<!-- Generator: Adobe Illustrator 19.0.0, SVG Export Plug-In . SVG Version: 6.00 Build 0)  -->
<svg version="1.1" id="Layer_1" xmlns="http://www.w3.org/2000/svg" xmlns:xlink="http://www.w3.org/1999/xlink" x="0px" y="0px"
	 viewBox="0 0 511.763 511.763" style="enable-background:new 0 0 511.763 511.763;" xml:space="preserve">
<g>
	<g>
		<path d="M327.661,144.574L422.492,39.75c4.523-4.983,4.352-12.638-0.418-17.425L403.471,3.731
			c-4.745-4.787-12.399-4.992-17.434-0.452L281.206,98.127c-6.665,6.033-10.462,14.276-10.769,23.236
			c-4.617-1.365-9.498-2.133-14.558-2.133c-5.052,0-9.933,0.768-14.549,2.133c-0.307-8.96-4.113-17.203-10.769-23.236L125.72,3.27
			c-5.009-4.523-12.681-4.335-17.417,0.444L89.675,22.342c-4.753,4.77-4.924,12.425-0.41,17.399l94.839,104.832
			c5.948,6.571,14.054,10.317,22.861,10.726c-1.476,4.787-2.287,9.865-2.287,15.13c0,6.076,1.126,11.887,3.081,17.306
			c-8.064,0.836-15.445,4.395-20.941,10.479L94.146,300.64c-5.751,6.349-5.504,16.068,0.555,22.127l14.003,14.003
			c3.14,3.132,7.245,4.719,11.366,4.719c3.857,0,7.706-1.382,10.769-4.156l93.047-84.198l-18.415,190.362h-34.927
			c-4.71,0-8.533,3.814-8.533,8.533v51.2c0,4.719,3.823,8.533,8.533,8.533h170.667c4.719,0,8.533-3.814,8.533-8.533v-51.2
			c0-4.719-3.814-8.533-8.533-8.533h-34.918l-18.441-190.558l93.269,84.395c3.072,2.773,6.921,4.156,10.769,4.156
			c4.113,0,8.235-1.587,11.366-4.719l14.012-14.003c6.059-6.059,6.298-15.778,0.546-22.127l-92.663-102.426
			c-5.547-6.127-13.005-9.711-21.137-10.505c1.954-5.41,3.063-11.213,3.063-17.28c0-5.265-0.802-10.342-2.278-15.13
			C313.607,154.89,321.713,151.144,327.661,144.574z M289.15,443.496h-66.534l21.606-223.258c1.852,0.435,3.738,0.785,5.666,1.007
			c0.06,0.008,0.119,0.026,0.179,0.026c1.911,0.222,3.849,0.358,5.811,0.358c1.971,0,3.908-0.137,5.82-0.358
			c0.06,0,0.12-0.017,0.179-0.026c1.92-0.222,3.806-0.572,5.666-1.007L289.15,443.496z M271.264,200.731
			c-0.043,0.017-0.094,0.026-0.128,0.051c-9.967,5.018-20.54,5.018-30.507,0c-0.043-0.026-0.085-0.034-0.128-0.051
			c-11.076-5.649-18.756-17.041-18.756-30.302c0-18.825,15.309-34.133,34.133-34.133s34.133,15.309,34.133,34.133
			C290.012,183.69,282.341,195.082,271.264,200.731z"/>
	</g>
</g>
<g>
</g>
<g>
</g>
<g>
</g>
<g>
</g>
<g>
</g>
<g>
</g>
<g>
</g>
<g>
</g>
<g>
</g>
<g>
</g>
<g>
</g>
<g>
</g>
<g>
</g>
<g>
</g>
<g>
</g>
</svg>
