<?xml version="1.0" encoding="iso-8859-1"?>
<!-- Generator: Adobe Illustrator 19.0.0, SVG Export Plug-In . SVG Version: 6.00 Build 0)  -->
<svg version="1.1" id="Layer_1" xmlns="http://www.w3.org/2000/svg" xmlns:xlink="http://www.w3.org/1999/xlink" x="0px" y="0px"
	 viewBox="0 0 512 512" style="enable-background:new 0 0 512 512;" xml:space="preserve">
<g>
	<g>
		<path d="M256,232.133c-13.161,0-23.866,10.706-23.866,23.867S242.84,279.867,256,279.867s23.866-10.706,23.866-23.867
			S269.161,232.133,256,232.133z M256,264.152c-4.495,0-8.151-3.656-8.151-8.152s3.656-8.152,8.151-8.152s8.151,3.656,8.151,8.152
			S260.495,264.152,256,264.152z"/>
	</g>
</g>
<g>
	<g>
		<path d="M512,1.542L394.766,135.523L259.296,0.478L1.541,0l133.982,117.234L0.454,252.729L0,510.459l117.234-133.981
			l135.503,135.077L510.459,512L376.477,394.766L511.538,259.28L512,1.542z M263.858,27.216l120.539,120.159l-79.786,91.184
			c-6.313-17.541-21.861-30.714-40.753-33.61V27.216z M43.367,15.715l201.365,0.265c1.972,0.645,3.41,2.481,3.41,4.665v11.15
			h-40.336v15.715h40.336v16.763h-24.62v15.715h24.62v15.715h-7.858v15.715h7.858v83.474L43.367,15.715z M147.375,127.604
			l91.184,79.786c-17.541,6.313-30.714,21.86-33.61,40.753H27.216L147.375,127.604z M15.715,468.633l0.341-200.425
			c0.855-2.525,3.243-4.351,6.052-4.351h9.688v40.336h15.715v-40.336h16.763v24.621h15.715v-24.621h15.715v7.858h15.715v-7.858
			h83.474L15.715,468.633z M248.142,484.784L127.604,364.626l79.786-91.184c6.313,17.541,21.86,30.714,40.752,33.61V484.784z
			 M220.068,256c0-19.813,16.12-35.932,35.932-35.932c19.813,0,35.932,16.12,35.932,35.932c0,19.813-16.12,35.932-35.932,35.932
			S220.068,275.813,220.068,256z M468.633,496.285l-202.353-0.379c-1.425-0.652-2.422-2.082-2.422-3.749v-11.953h40.336v-15.715
			h-40.336v-16.763h24.621v-15.715h-24.621v-15.715h7.858V400.58h-7.858v-83.474L468.633,496.285z M364.625,384.396l-91.184-79.786
			c17.541-6.313,30.714-21.86,33.61-40.753h177.734L364.625,384.396z M495.948,246.405c-0.51,1.025-1.558,1.737-2.778,1.737h-12.966
			v-40.336h-15.715v40.336h-16.763v-24.621h-15.715v24.621h-15.715v-7.858H400.58v7.858h-83.474L496.285,43.368L495.948,246.405z"/>
	</g>
</g>
<g>
</g>
<g>
</g>
<g>
</g>
<g>
</g>
<g>
</g>
<g>
</g>
<g>
</g>
<g>
</g>
<g>
</g>
<g>
</g>
<g>
</g>
<g>
</g>
<g>
</g>
<g>
</g>
<g>
</g>
</svg>
