<?xml version="1.0" standalone="no"?>
<!DOCTYPE svg PUBLIC "-//W3C//DTD SVG 20010904//EN"
 "http://www.w3.org/TR/2001/REC-SVG-20010904/DTD/svg10.dtd">
<svg version="1.0" xmlns="http://www.w3.org/2000/svg"
 width="405.000000pt" height="540.000000pt" viewBox="0 0 405.000000 540.000000"
 preserveAspectRatio="xMidYMid meet">

<g transform="translate(0.000000,540.000000) scale(0.100000,-0.100000)"
fill="#000000" stroke="none">
<path d="M0 2700 l0 -2700 2025 0 2025 0 0 2700 0 2700 -2025 0 -2025 0 0
-2700z m991 70 c31 -83 39 -119 39 -172 0 -58 -3 -68 -17 -68 -14 0 -31 37
-77 163 -32 89 -61 168 -64 175 -3 10 6 12 38 10 l42 -3 39 -105z m459 -65 c0
-171 0 -175 -21 -175 -14 0 -19 5 -16 14 3 8 -1 17 -9 20 -7 3 -13 2 -13 -2 1
-4 1 -14 0 -22 -1 -11 -4 -11 -13 -2 -20 20 -21 218 -1 237 13 13 13 15 -1 15
-12 0 -14 5 -6 25 6 16 6 26 -1 31 -13 8 -11 12 -44 -81 -64 -182 -87 -235
-101 -235 -11 0 -14 17 -14 73 0 58 7 92 37 175 l37 102 83 0 83 0 0 -175z
m180 145 l0 -30 -85 0 -85 0 0 30 0 30 85 0 85 0 0 -30z m272 -139 c32 -90 58
-168 58 -173 0 -5 -21 -8 -47 -6 -44 3 -47 5 -55 36 -8 31 -11 32 -58 32 -33
0 -50 4 -51 13 0 6 -7 -9 -15 -35 -14 -47 -15 -48 -56 -48 l-41 0 5 43 c3 23
12 58 21 77 9 19 30 79 47 133 l32 98 51 -3 50 -3 59 -164z m336 133 l3 -34
-136 0 c-111 0 -135 3 -135 14 0 19 17 30 22 14 3 -8 7 -6 11 5 5 13 1 17 -14
17 -11 0 -17 5 -14 10 4 7 55 10 134 9 l127 -1 2 -34z m100 -11 c-1 -83 2
-109 11 -95 5 9 26 12 67 10 58 -3 59 -3 59 -33 l0 -30 -68 0 c-37 0 -67 -2
-67 -5 -1 -3 -2 -36 -3 -75 -2 -62 -5 -70 -22 -70 -11 0 -19 5 -18 12 2 7 -4
10 -12 7 -8 -4 -12 -10 -9 -15 3 -5 -2 -6 -11 -3 -14 6 -15 29 -14 175 l2 169
43 0 43 0 -1 -47z m232 -128 l0 -175 -39 0 -40 0 0 175 -1 175 40 0 40 0 0
-175z m100 0 c0 -171 0 -175 -21 -175 -14 0 -19 5 -16 14 3 8 -1 17 -9 20 -7
3 -13 2 -13 -2 1 -4 1 -14 0 -21 -1 -12 -4 -12 -13 -3 -20 20 -21 218 -1 237
13 13 13 15 -1 15 -12 0 -14 5 -6 24 5 15 5 27 -2 34 -18 18 1 32 43 32 l39 0
0 -175z m180 145 l0 -30 -85 0 -85 0 0 30 0 30 85 0 85 0 0 -30z m250 15 c52
-27 63 -118 18 -149 -19 -13 -19 -15 -3 -39 9 -14 15 -31 14 -39 -1 -7 0 -20
3 -28 3 -8 10 -30 16 -47 l10 -33 -43 0 c-39 0 -44 3 -54 31 -6 18 -11 40 -11
50 0 28 -28 49 -66 49 l-34 0 0 -65 0 -65 -45 0 -45 0 0 175 0 175 105 0 c74
0 115 -4 135 -15z m-951 -137 c2 -49 -2 -74 -11 -79 -10 -7 -10 -9 0 -9 8 0
12 -18 12 -55 l0 -55 -45 0 -45 0 1 135 2 135 42 0 42 0 2 -72z m-970 -13 c28
-74 30 -185 3 -185 -13 0 -23 16 -37 56 -10 30 -22 57 -26 60 -4 2 -16 -22
-26 -53 -12 -36 -26 -59 -36 -61 -15 -3 -17 7 -17 68 0 43 7 92 17 121 17 48
18 49 60 49 41 0 42 0 62 -55z m436 0 l0 -30 -77 -2 -78 -1 0 34 0 35 78 -3
77 -3 0 -30z m1220 0 l0 -30 -77 -2 -78 -1 0 34 0 35 78 -3 77 -3 0 -30z
m-1205 -151 l0 -34 -85 0 c-82 0 -85 1 -85 23 0 39 19 48 97 46 l73 -2 0 -33z
m1220 0 l0 -34 -85 0 c-82 0 -85 1 -85 23 0 39 19 48 97 46 l73 -2 0 -33z"/>
<path d="M1777 2728 c-9 -28 -15 -54 -13 -56 2 -2 17 -2 33 0 l29 3 -16 53
-16 52 -17 -52z"/>
<path d="M2265 2860 c3 -5 8 -10 11 -10 2 0 4 5 4 10 0 6 -5 10 -11 10 -5 0
-7 -4 -4 -10z"/>
<path d="M2320 2710 c-13 -8 -12 -10 3 -10 9 0 17 5 17 10 0 12 -1 12 -20 0z"/>
<path d="M2950 2768 l0 -48 38 0 c51 0 75 18 70 55 -3 28 -6 30 -55 35 l-53 6
0 -48z"/>
</g>
</svg>
