<?xml version="1.0" encoding="iso-8859-1"?>
<!-- Generator: Adobe Illustrator 19.0.0, SVG Export Plug-In . SVG Version: 6.00 Build 0)  -->
<svg version="1.1" id="Capa_1" xmlns="http://www.w3.org/2000/svg" xmlns:xlink="http://www.w3.org/1999/xlink" x="0px" y="0px"
	 viewBox="0 0 60 60" style="enable-background:new 0 0 60 60;" xml:space="preserve">
<g>
	<path d="M42,11c0.256,0,0.512-0.098,0.707-0.293l3-3c0.391-0.391,0.391-1.023,0-1.414s-1.023-0.391-1.414,0l-3,3
		c-0.391,0.391-0.391,1.023,0,1.414C41.488,10.902,41.744,11,42,11z"/>
	<path d="M51.293,15.293l-3,3c-0.391,0.391-0.391,1.023,0,1.414C48.488,19.902,48.744,20,49,20s0.512-0.098,0.707-0.293l3-3
		c0.391-0.391,0.391-1.023,0-1.414S51.684,14.902,51.293,15.293z"/>
	<path d="M56,5c0.256,0,0.512-0.098,0.707-0.293l3-3c0.391-0.391,0.391-1.023,0-1.414s-1.023-0.391-1.414,0l-3,3
		c-0.391,0.391-0.391,1.023,0,1.414C55.488,4.902,55.744,5,56,5z"/>
	<path d="M52.293,6.293l-3,3c-0.391,0.391-0.391,1.023,0,1.414C49.488,10.902,49.744,11,50,11s0.512-0.098,0.707-0.293l3-3
		c0.391-0.391,0.391-1.023,0-1.414S52.684,5.902,52.293,6.293z"/>
	<path d="M48,5c0.256,0,0.512-0.098,0.707-0.293l3-3c0.391-0.391,0.391-1.023,0-1.414s-1.023-0.391-1.414,0l-3,3
		c-0.391,0.391-0.391,1.023,0,1.414C47.488,4.902,47.744,5,48,5z"/>
	<path d="M58.293,8.293l-3,3c-0.391,0.391-0.391,1.023,0,1.414C55.488,12.902,55.744,13,56,13s0.512-0.098,0.707-0.293l3-3
		c0.391-0.391,0.391-1.023,0-1.414S58.684,7.902,58.293,8.293z"/>
	<path d="M26.144,8.029C26.095,8.022,26.051,8,26,8V6c0-0.553-0.448-1-1-1s-1,0.447-1,1v2c-0.051,0-0.095,0.022-0.144,0.029
		C10.6,8.629,0,19.598,0,33v2c0,0.553,0.448,1,1,1s1-0.447,1-1v-1.614C3.38,31.85,5.14,31,7,31s3.62,0.85,5,2.386V35
		c0,0.553,0.448,1,1,1s1-0.447,1-1v-1.614C15.38,31.85,17.14,31,19,31s3.62,0.85,5,2.386V42h-1c-0.552,0-1,0.447-1,1s0.448,1,1,1h1
		v2h-2v7c0,0.552-0.449,1-1,1c-0.368,0-0.706-0.203-0.882-0.529C19.629,52.563,18.643,52,17.542,52c-1.088,0-2.06,0.563-2.599,1.508
		c-0.545,0.954-0.536,2.092,0.025,3.041C16.224,58.678,18.536,60,21,60c3.86,0,7-3.141,7-7v-7h-2V33.386C27.38,31.85,29.14,31,31,31
		s3.62,0.85,5,2.386V35c0,0.553,0.448,1,1,1s1-0.447,1-1v-1.614C39.38,31.85,41.14,31,43,31s3.62,0.85,5,2.386V35
		c0,0.553,0.448,1,1,1s1-0.447,1-1v-2C50,19.598,39.4,8.629,26.144,8.029z M12.057,30.736C10.558,29.612,8.823,29,7,29
		c-1.75,0-3.418,0.566-4.875,1.605c1.015-9.768,8.17-17.733,17.526-19.97C15.429,14.388,12.487,21.822,12.057,30.736z M19,29
		c-1.775,0-3.466,0.583-4.938,1.65C14.611,20.34,18.727,12.029,24,10.326v20.369C22.514,29.598,20.8,29,19,29z M26,53
		c0,2.757-2.243,5-5,5c-1.76,0-3.412-0.945-4.31-2.467c-0.191-0.324-0.195-0.711-0.011-1.034C16.766,54.35,17.021,54,17.542,54
		c0.358,0,0.678,0.165,0.815,0.42C18.883,55.395,19.896,56,21,56c1.654,0,3-1.346,3-3v-5h2V53z M31,29c-1.8,0-3.514,0.598-5,1.695
		V10.326c5.273,1.703,9.389,10.014,9.938,20.324C34.466,29.583,32.775,29,31,29z M43,29c-1.823,0-3.558,0.612-5.057,1.736
		c-0.429-8.915-3.371-16.348-7.594-20.102c9.356,2.238,16.511,10.202,17.526,19.97C46.418,29.566,44.75,29,43,29z"/>
</g>
<g>
</g>
<g>
</g>
<g>
</g>
<g>
</g>
<g>
</g>
<g>
</g>
<g>
</g>
<g>
</g>
<g>
</g>
<g>
</g>
<g>
</g>
<g>
</g>
<g>
</g>
<g>
</g>
<g>
</g>
</svg>
