<?xml version="1.0" encoding="iso-8859-1"?>
<!-- Generator: Adobe Illustrator 19.0.0, SVG Export Plug-In . SVG Version: 6.00 Build 0)  -->
<svg version="1.1" id="Layer_1" xmlns="http://www.w3.org/2000/svg" xmlns:xlink="http://www.w3.org/1999/xlink" x="0px" y="0px"
	 viewBox="0 0 330 330" style="enable-background:new 0 0 330 330;" xml:space="preserve">
<path id="XMLID_9_" d="M138.107,63.107L150,51.213V315c0,8.284,6.716,15,15,15c8.284,0,15-6.716,15-15V51.213l11.894,11.894
	c2.929,2.929,6.768,4.394,10.606,4.394c3.839,0,7.678-1.464,10.607-4.394c5.858-5.858,5.858-15.355,0-21.213l-37.5-37.5
	c-5.857-5.858-15.355-5.858-21.213,0l-37.5,37.5c-5.858,5.858-5.858,15.355,0,21.213C122.751,68.965,132.249,68.965,138.107,63.107z
	"/>
<g>
</g>
<g>
</g>
<g>
</g>
<g>
</g>
<g>
</g>
<g>
</g>
<g>
</g>
<g>
</g>
<g>
</g>
<g>
</g>
<g>
</g>
<g>
</g>
<g>
</g>
<g>
</g>
<g>
</g>
</svg>
