<?xml version="1.0" encoding="iso-8859-1"?>
<!-- Generator: Adobe Illustrator 19.0.0, SVG Export Plug-In . SVG Version: 6.00 Build 0)  -->
<svg version="1.1" id="Layer_1" xmlns="http://www.w3.org/2000/svg" xmlns:xlink="http://www.w3.org/1999/xlink" x="0px" y="0px"
	 viewBox="0 0 512 512" style="enable-background:new 0 0 512 512;" xml:space="preserve">
<path style="fill:#314E55;" d="M445.755,220.028L263.541,3.34c-3.751-4.453-11.331-4.453-15.082,0L66.244,220.028
	c-2.462,2.929-3.001,7.026-1.385,10.499c1.616,3.468,5.098,5.689,8.926,5.689h83.586l41.36,248.164
	c2.578,15.486,16.9,27.62,32.617,27.62h49.295c15.707,0,30.039-12.129,32.626-27.615l41.35-248.169h83.595
	c3.828,0,7.31-2.222,8.926-5.689C448.757,227.054,448.218,222.957,445.755,220.028z"/>
<path style="fill:#5ECB66;" d="M346.28,216.517c-4.819,0-8.926,3.482-9.715,8.229L293.84,481.139
	c-0.991,5.949-7.156,11.162-13.197,11.162h-49.295c-6.04,0-12.196-5.213-13.187-11.157l-42.735-256.398
	c-0.789-4.747-4.896-8.229-9.715-8.229H94.937L256,24.982l161.063,191.535H346.28z"/>
<g>
</g>
<g>
</g>
<g>
</g>
<g>
</g>
<g>
</g>
<g>
</g>
<g>
</g>
<g>
</g>
<g>
</g>
<g>
</g>
<g>
</g>
<g>
</g>
<g>
</g>
<g>
</g>
<g>
</g>
</svg>
