<?xml version="1.0" encoding="iso-8859-1"?>
<!-- Generator: Adobe Illustrator 19.0.0, SVG Export Plug-In . SVG Version: 6.00 Build 0)  -->
<svg version="1.1" id="Capa_1" xmlns="http://www.w3.org/2000/svg" xmlns:xlink="http://www.w3.org/1999/xlink" x="0px" y="0px"
	 viewBox="0 0 512.005 512.005" style="enable-background:new 0 0 512.005 512.005;" xml:space="preserve">
<g>
	<path id="SVGCleanerId_0" style="fill:#303C42;" d="M263.148,2.766c-4.042-3.688-10.25-3.688-14.292,0
		c-7.563,6.823-184.854,168.875-184.854,317.24c0,105.865,86.125,192,192,192s192-86.135,192-192
		C448.003,171.641,270.711,9.589,263.148,2.766z"/>
</g>
<path style="fill:#BBDEFB;" d="M256.003,490.672c-94.104,0-170.667-76.563-170.667-170.667
	c0-122.708,137.438-262.646,170.667-294.667c33.229,32.01,170.667,171.865,170.667,294.667
	C426.669,414.109,350.107,490.672,256.003,490.672z"/>
<path style="fill:#0288D1;" d="M256.003,490.672c-94.104,0-170.667-76.563-170.667-170.667
	c0-122.708,137.438-262.646,170.667-294.667c33.229,32.01,170.667,171.865,170.667,294.667
	C426.669,414.109,350.107,490.672,256.003,490.672z"/>
<path style="opacity:0.1;enable-background:new    ;" d="M256.003,25.339c-0.181,0.174-0.458,0.452-0.646,0.633
	c49.668,59.911,107.313,146.465,107.313,226.034c0,94.104-76.563,170.667-170.667,170.667c-32.005,0-61.871-9.018-87.496-24.409
	c28.431,54.81,85.607,92.409,151.496,92.409c94.104,0,170.667-76.563,170.667-170.667
	C426.669,197.203,289.232,57.349,256.003,25.339z"/>
<g>
	<circle style="opacity:0.2;fill:#FFFFFF;enable-background:new    ;" cx="284.44" cy="344.536" r="17.109"/>
	<circle style="opacity:0.2;fill:#FFFFFF;enable-background:new    ;" cx="244.227" cy="308.227" r="9.557"/>
</g>
<g>
	
		<linearGradient id="SVGCleanerId_0_3_" gradientUnits="userSpaceOnUse" x1="-42.0381" y1="637.4683" x2="-25.5628" y2="629.7891" gradientTransform="matrix(21.3333 0 0 -21.3333 996.2804 13791.7256)">
		<stop  offset="0" style="stop-color:#FFFFFF;stop-opacity:0.2"/>
		<stop  offset="1" style="stop-color:#FFFFFF;stop-opacity:0"/>
	</linearGradient>
	<path id="SVGCleanerId_0_1_" style="fill:url(#SVGCleanerId_0_3_);" d="M263.148,2.766c-4.042-3.688-10.25-3.688-14.292,0
		c-7.563,6.823-184.854,168.875-184.854,317.24c0,105.865,86.125,192,192,192s192-86.135,192-192
		C448.003,171.641,270.711,9.589,263.148,2.766z"/>
</g>
<g>
	
		<linearGradient id="SVGCleanerId_0_4_" gradientUnits="userSpaceOnUse" x1="-41.6915" y1="639.738" x2="-27.7099" y2="625.7554" gradientTransform="matrix(21.3333 0 0 -21.3333 996.2804 13791.7256)">
		<stop  offset="0" style="stop-color:#000000;stop-opacity:0.1"/>
		<stop  offset="1" style="stop-color:#000000;stop-opacity:0"/>
	</linearGradient>
	<path id="SVGCleanerId_0_2_" style="fill:url(#SVGCleanerId_0_4_);" d="M263.148,2.766c-4.042-3.688-10.25-3.688-14.292,0
		c-7.563,6.823-184.854,168.875-184.854,317.24c0,105.865,86.125,192,192,192s192-86.135,192-192
		C448.003,171.641,270.711,9.589,263.148,2.766z"/>
</g>
<g>
</g>
<g>
</g>
<g>
</g>
<g>
</g>
<g>
</g>
<g>
</g>
<g>
</g>
<g>
</g>
<g>
</g>
<g>
</g>
<g>
</g>
<g>
</g>
<g>
</g>
<g>
</g>
<g>
</g>
</svg>
